<svg width="72" height="68" viewBox="0 0 72 68" fill="none" xmlns="http://www.w3.org/2000/svg">
<path d="M68 11.4072C68 7.63599 68 5.75037 66.8284 4.5788C65.6569 3.40723 63.7712 3.40723 60 3.40723H12C8.22876 3.40723 6.34315 3.40723 5.17157 4.5788C4 5.75037 4 7.63599 4 11.4072V63.0369C4 63.9797 4 64.4511 4.29289 64.744C4.58579 65.0369 5.05719 65.0369 6 65.0369H60C63.7712 65.0369 65.6569 65.0369 66.8284 63.8653C68 62.6937 68 60.8081 68 57.0369V11.4072Z" stroke="#222222" stroke-width="1.5"/>
<path d="M24 34.2222L48 34.2222" stroke="#222222" stroke-width="1.5" stroke-linecap="round" stroke-linejoin="round"/>
<path d="M36 22.6665L36 45.7776" stroke="#222222" stroke-width="1.5" stroke-linecap="round" stroke-linejoin="round"/>
</svg>
