<svg width="21" height="21" viewBox="0 0 21 21" fill="none" xmlns="http://www.w3.org/2000/svg">
<path d="M11.1624 7.11249H9.1374V5.08749H11.1624M11.1624 15.2125H9.1374V9.13749H11.1624M10.1499 0.0249939C8.82027 0.0249939 7.50365 0.286885 6.27523 0.795714C5.04681 1.30454 3.93064 2.05034 2.99045 2.99054C1.09164 4.88934 0.0249023 7.46468 0.0249023 10.15C0.0249023 12.8353 1.09164 15.4106 2.99045 17.3095C3.93064 18.2496 5.04681 18.9954 6.27523 19.5043C7.50365 20.0131 8.82027 20.275 10.1499 20.275C12.8352 20.275 15.4106 19.2083 17.3094 17.3095C19.2082 15.4106 20.2749 12.8353 20.2749 10.15C20.2749 8.82036 20.013 7.50375 19.5042 6.27532C18.9954 5.0469 18.2496 3.93073 17.3094 2.99054C16.3692 2.05034 15.253 1.30454 14.0246 0.795714C12.7962 0.286885 11.4795 0.0249939 10.1499 0.0249939Z" fill="black"/>
</svg>
