<svg width="25" height="19" viewBox="0 0 25 19" fill="none" xmlns="http://www.w3.org/2000/svg">
<path d="M12.7701 0.427999C17.5356 0.427999 21.4506 3.9515 22.1121 8.528H24.9201L20.1951 13.928L15.4701 8.528H18.6021C18.3001 7.20649 17.5589 6.02642 16.4997 5.1805C15.4404 4.33457 14.1257 3.87277 12.7701 3.8705C10.8126 3.8705 9.08458 4.829 7.99108 6.2735L5.68258 3.641C6.56617 2.6306 7.65585 1.82109 8.87835 1.26689C10.1008 0.71269 11.4278 0.426649 12.7701 0.427999ZM12.2301 18.572C7.47808 18.572 3.54958 15.0485 2.88808 10.472H0.0800781L4.80508 5.072C6.38458 6.8675 7.95058 8.6765 9.53008 10.472H6.39808C6.7001 11.7935 7.44124 12.9736 8.50049 13.8195C9.55974 14.6654 10.8745 15.1272 12.2301 15.1295C14.1876 15.1295 15.9156 14.171 17.0091 12.7265L19.3176 15.359C18.4348 16.3704 17.3453 17.1806 16.1226 17.7349C14.8999 18.2892 13.5725 18.5747 12.2301 18.572Z" fill="black"/>
</svg>
