<svg width="21" height="24" viewBox="0 0 21 24" fill="none" xmlns="http://www.w3.org/2000/svg">
<path fill-rule="evenodd" clip-rule="evenodd" d="M17.7625 0.00173073H3.76779C2.78638 0.00179634 1.84368 0.384617 1.14009 1.06882C0.436497 1.75302 0.0274868 2.68465 0 3.66568V20.2357C0.000917484 21.2343 0.398285 22.1918 1.10478 22.8977C1.81128 23.6035 2.76911 24 3.76779 24H19.4084C19.7526 24 20.0828 23.8632 20.3262 23.6198C20.5697 23.3764 20.7064 23.0462 20.7064 22.702C20.7064 22.3577 20.5697 22.0275 20.3262 21.7841C20.0828 21.5407 19.7526 21.4039 19.4084 21.4039H19.0622V18.7576C19.5562 18.5152 19.9723 18.139 20.2629 17.6718C20.5536 17.2045 20.7073 16.6651 20.7064 16.1148V2.94397C20.7064 2.55736 20.6303 2.17454 20.4823 1.81736C20.3344 1.46018 20.1175 1.13564 19.8442 0.862268C19.5708 0.588895 19.2462 0.372044 18.8891 0.224096C18.5319 0.076148 18.1491 0 17.7625 0V0.00173073ZM2.93878 21.0595C2.7753 20.8955 2.66407 20.6868 2.61912 20.4597C2.57416 20.2326 2.59751 19.9972 2.6862 19.7833C2.7749 19.5695 2.92497 19.3867 3.11747 19.258C3.30997 19.1294 3.53626 19.0606 3.76779 19.0605H16.4644V21.4039H3.76779C3.61346 21.404 3.46063 21.3737 3.31806 21.3146C3.1755 21.2555 3.04774 21.1688 2.93878 21.0595ZM13.3404 14.2993C12.732 14.4426 12.0937 14.3886 11.518 14.1452C9.18945 12.749 7.24089 10.8005 5.84467 8.47191C5.60311 7.89526 5.55037 7.25692 5.69402 6.64845C5.83766 6.03997 6.17031 5.49261 6.64426 5.08488L7.07002 4.65912C7.21891 4.47325 7.43392 4.35216 7.67005 4.32119C7.90618 4.29022 8.14513 4.35177 8.33692 4.49297L9.71457 5.87063C9.85577 6.06241 9.91732 6.30137 9.88636 6.5375C9.85539 6.77363 9.7343 6.98863 9.54842 7.13752C9.36282 7.28666 9.24207 7.50178 9.21142 7.7379C9.18078 7.97402 9.24262 8.21284 9.38401 8.40441L11.5855 10.6059C11.7771 10.7473 12.0159 10.8091 12.252 10.7785C12.4881 10.7478 12.7032 10.6271 12.8524 10.4415C13.0015 10.2559 13.2166 10.1351 13.4528 10.1045C13.6889 10.0738 13.9277 10.1357 14.1193 10.2771L15.4969 11.653C15.6381 11.8448 15.6997 12.0837 15.6687 12.3199C15.6377 12.556 15.5167 12.771 15.3308 12.9199L14.905 13.3474C14.4983 13.8225 13.951 14.1559 13.3422 14.2993H13.3404Z" fill="black"/>
</svg>
