<svg width="10" height="17" viewBox="0 0 10 17" fill="none" xmlns="http://www.w3.org/2000/svg">
<path d="M0.795267 0.365983C0.560928 0.600393 0.429284 0.918278 0.429284 1.24973C0.429284 1.58119 0.560928 1.89907 0.795267 2.13348L6.98277 8.32098L0.795267 14.5085C0.56757 14.7442 0.441577 15.06 0.444425 15.3877C0.447272 15.7155 0.578733 16.029 0.810493 16.2608C1.04225 16.4925 1.35577 16.624 1.68352 16.6268C2.01126 16.6297 2.32701 16.5037 2.56277 16.276L9.63402 9.20473C9.86836 8.97032 10 8.65244 10 8.32098C10 7.98953 9.86836 7.67164 9.63402 7.43723L2.56277 0.365983C2.32836 0.131644 2.01047 0 1.67902 0C1.34756 0 1.02968 0.131644 0.795267 0.365983Z" fill="#FF9000"/>
</svg>
