<svg width="13" height="16" viewBox="0 0 13 16" fill="none" xmlns="http://www.w3.org/2000/svg">
<path d="M10.5625 7.58333C10.5625 10.5005 8.04672 12.5442 6.97468 13.2826C6.6858 13.4816 6.3142 13.4816 6.02532 13.2826C4.95328 12.5442 2.4375 10.5005 2.4375 7.58333C2.4375 4.73958 4.40592 2.84375 6.5 2.84375C8.66667 2.84375 10.5625 4.73958 10.5625 7.58333Z" stroke="#637663"/>
<path d="M8.16683 7.58332C8.16683 8.77832 7.3511 9.6111 6.50016 9.6111C5.64922 9.6111 4.8335 8.77832 4.8335 7.58332C4.8335 6.38832 5.64922 5.55554 6.50016 5.55554C7.3511 5.55554 8.16683 6.38832 8.16683 7.58332Z" stroke="#637663"/>
</svg>
