<svg width="21" height="22" viewBox="0 0 21 22" fill="none" xmlns="http://www.w3.org/2000/svg">
<path d="M1.125 1.75C1.125 1.58424 1.19085 1.42527 1.30806 1.30806C1.42527 1.19085 1.58424 1.125 1.75 1.125H19.25C19.4158 1.125 19.5747 1.19085 19.6919 1.30806C19.8092 1.42527 19.875 1.58424 19.875 1.75V16.125C19.875 16.2071 19.8588 16.2883 19.8274 16.3642C19.796 16.44 19.75 16.5089 19.6919 16.5669C19.6339 16.625 19.565 16.671 19.4892 16.7024C19.4133 16.7338 19.3321 16.75 19.25 16.75H14.9375C14.852 16.7499 14.7674 16.7673 14.689 16.8011C14.6105 16.835 14.5398 16.8846 14.4812 16.9469L10.9552 20.6937C10.8968 20.7559 10.8262 20.8054 10.748 20.8392C10.6697 20.873 10.5853 20.8905 10.5 20.8905C10.4147 20.8905 10.3303 20.873 10.252 20.8392C10.1738 20.8054 10.1032 20.7559 10.0448 20.6937L6.51875 16.9469C6.4602 16.8846 6.38951 16.835 6.31103 16.8011C6.23256 16.7673 6.14797 16.7499 6.0625 16.75H1.75C1.58424 16.75 1.42527 16.6842 1.30806 16.5669C1.19085 16.4497 1.125 16.2908 1.125 16.125V1.75Z" stroke="black" stroke-width="1.875"/>
<path d="M10.5002 5.29167L11.9845 7.97396L14.6668 9.45833L11.9845 10.9427L10.5002 13.625L9.01579 10.9427L6.3335 9.45833L9.01579 7.97396L10.5002 5.29167Z" stroke="black" stroke-width="1.875" stroke-linecap="round" stroke-linejoin="round"/>
</svg>
