<svg width="18" height="23" viewBox="0 0 18 23" fill="none" xmlns="http://www.w3.org/2000/svg">
<path d="M15.75 22.5C16.3467 22.5 16.919 22.2629 17.341 21.841C17.7629 21.419 18 20.8467 18 20.25V6.75L11.25 0H2.25C1.65326 0 1.08097 0.237053 0.65901 0.65901C0.237053 1.08097 0 1.65326 0 2.25V20.25C0 20.8467 0.237053 21.419 0.65901 21.841C1.08097 22.2629 1.65326 22.5 2.25 22.5H15.75ZM10.125 2.25L15.75 7.875H10.125V2.25ZM3.375 6.75H6.75V9H3.375V6.75ZM3.375 11.25H14.625V13.5H3.375V11.25ZM3.375 15.75H14.625V18H3.375V15.75Z" fill="black"/>
</svg>
