<svg width="170" height="170" viewBox="0 0 170 170" fill="none" xmlns="http://www.w3.org/2000/svg">
<path fill-rule="evenodd" clip-rule="evenodd" d="M85 170C96.1624 170 107.215 167.801 117.528 163.53C127.841 159.258 137.211 152.997 145.104 145.104C152.997 137.211 159.258 127.841 163.53 117.528C167.801 107.215 170 96.1624 170 85C170 73.8376 167.801 62.7846 163.53 52.4719C159.258 42.1592 152.997 32.7889 145.104 24.8959C137.211 17.0029 127.841 10.7419 117.528 6.47024C107.215 2.19859 96.1624 -1.66332e-07 85 0C62.4566 3.35923e-07 40.8365 8.95533 24.8959 24.8959C8.95533 40.8365 0 62.4566 0 85C0 107.543 8.95533 129.163 24.8959 145.104C40.8365 161.045 62.4566 170 85 170ZM82.8089 119.378L130.031 62.7111L115.524 50.6222L74.9133 99.3461L53.8994 78.3228L40.545 91.6772L68.8783 120.011L76.1883 127.321L82.8089 119.378Z" fill="black"/>
</svg>
